<svg width="83" height="83" viewBox="0 0 83 83" fill="none" xmlns="http://www.w3.org/2000/svg">
<path d="M0 12C0 5.37259 5.37258 0 12 0H71C77.6274 0 83 5.37258 83 12V71C83 77.6274 77.6274 83 71 83H12C5.37259 83 0 77.6274 0 71V12Z" fill="#572AD3"/>
<rect x="6.5" y="5.5" width="71" height="71" rx="10.5" stroke="white" stroke-width="3"/>
<path d="M31.1687 16.93H54.7127V20.656H35.5427V33.778H53.6327V37.504H35.5427V55H31.1687V16.93Z" fill="white"/>
<path d="M29.107 70.108C28.459 70.108 27.851 70.02 27.283 69.844C26.715 69.668 26.235 69.42 25.843 69.1L26.359 67.972C26.767 68.284 27.195 68.512 27.643 68.656C28.099 68.8 28.591 68.872 29.119 68.872C29.703 68.872 30.151 68.772 30.463 68.572C30.783 68.364 30.943 68.076 30.943 67.708C30.943 67.388 30.795 67.144 30.499 66.976C30.211 66.808 29.727 66.648 29.047 66.496C28.343 66.344 27.771 66.168 27.331 65.968C26.891 65.768 26.559 65.512 26.335 65.2C26.111 64.888 25.999 64.492 25.999 64.012C25.999 63.516 26.135 63.072 26.407 62.68C26.679 62.288 27.063 61.984 27.559 61.768C28.055 61.544 28.627 61.432 29.275 61.432C29.867 61.432 30.431 61.524 30.967 61.708C31.503 61.884 31.943 62.128 32.287 62.44L31.771 63.568C31.019 62.968 30.187 62.668 29.275 62.668C28.731 62.668 28.299 62.78 27.979 63.004C27.667 63.22 27.511 63.524 27.511 63.916C27.511 64.244 27.651 64.496 27.931 64.672C28.211 64.848 28.687 65.012 29.359 65.164C30.071 65.324 30.647 65.504 31.087 65.704C31.535 65.896 31.875 66.144 32.107 66.448C32.347 66.752 32.467 67.136 32.467 67.6C32.467 68.104 32.331 68.548 32.059 68.932C31.795 69.308 31.407 69.6 30.895 69.808C30.391 70.008 29.795 70.108 29.107 70.108ZM34.0913 61.54H37.7873C38.6913 61.54 39.3953 61.768 39.8993 62.224C40.4033 62.672 40.6553 63.304 40.6553 64.12C40.6553 64.936 40.4033 65.572 39.8993 66.028C39.3953 66.484 38.6913 66.712 37.7873 66.712H35.6393V70H34.0913V61.54ZM37.5953 65.524C38.6593 65.524 39.1913 65.06 39.1913 64.132C39.1913 63.66 39.0593 63.312 38.7953 63.088C38.5313 62.856 38.1313 62.74 37.5953 62.74H35.6393V65.524H37.5953ZM45.946 70.108C45.122 70.108 44.406 69.932 43.798 69.58C43.198 69.228 42.734 68.724 42.406 68.068C42.078 67.412 41.914 66.644 41.914 65.764C41.914 64.884 42.074 64.12 42.394 63.472C42.722 62.816 43.19 62.312 43.798 61.96C44.406 61.608 45.122 61.432 45.946 61.432C46.77 61.432 47.482 61.608 48.082 61.96C48.69 62.312 49.154 62.816 49.474 63.472C49.802 64.12 49.966 64.884 49.966 65.764C49.966 66.644 49.802 67.412 49.474 68.068C49.146 68.724 48.678 69.228 48.07 69.58C47.47 69.932 46.762 70.108 45.946 70.108ZM45.946 68.872C46.722 68.872 47.326 68.604 47.758 68.068C48.198 67.532 48.418 66.764 48.418 65.764C48.418 64.764 48.198 64 47.758 63.472C47.326 62.936 46.722 62.668 45.946 62.668C45.162 62.668 44.55 62.936 44.11 63.472C43.678 64 43.462 64.764 43.462 65.764C43.462 66.764 43.678 67.532 44.11 68.068C44.55 68.604 45.162 68.872 45.946 68.872ZM53.2177 62.812H50.4577V61.54H57.5257V62.812H54.7657V70H53.2177V62.812Z" fill="white"/>
</svg>
